<mxfile host="Electron" agent="Mozilla/5.0 (Windows NT 10.0; Win64; x64) AppleWebKit/537.36 (KHTML, like Gecko) draw.io/28.0.4 Chrome/138.0.7204.97 Electron/37.2.1 Safari/537.36" version="28.0.4" pages="2">
  <diagram name="Página-1" id="Jzj6UHcgA9jKp4161QpI">
    <mxGraphModel dx="2792" dy="1290" grid="1" gridSize="10" guides="1" tooltips="1" connect="1" arrows="1" fold="1" page="1" pageScale="1" pageWidth="827" pageHeight="1169" math="0" shadow="0">
      <root>
        <mxCell id="0" />
        <mxCell id="1" parent="0" />
        <mxCell id="Q3gbNBMTAT74gwtriScG-18" value="" style="endArrow=none;html=1;rounded=0;entryX=0.5;entryY=1;entryDx=0;entryDy=0;exitX=0.5;exitY=0;exitDx=0;exitDy=0;" parent="1" source="Q3gbNBMTAT74gwtriScG-5" target="Q3gbNBMTAT74gwtriScG-1" edge="1">
          <mxGeometry width="50" height="50" relative="1" as="geometry">
            <mxPoint x="200" y="350" as="sourcePoint" />
            <mxPoint x="230" y="340" as="targetPoint" />
          </mxGeometry>
        </mxCell>
        <mxCell id="Q3gbNBMTAT74gwtriScG-1" value="INICIO&amp;nbsp;&lt;div&gt;&amp;nbsp;Cliente solicita abrir una cuenta de ahorro&lt;/div&gt;" style="ellipse;whiteSpace=wrap;html=1;fillColor=#60a917;fontColor=#ffffff;strokeColor=#2D7600;" parent="1" vertex="1">
          <mxGeometry x="135" y="20" width="130" height="100" as="geometry" />
        </mxCell>
        <mxCell id="Q3gbNBMTAT74gwtriScG-2" value="el representante del banco pide documentos (INE, COMPROBANTE DE DOMICILIO" style="rounded=0;whiteSpace=wrap;html=1;fillColor=#1ba1e2;fontColor=#ffffff;strokeColor=#006EAF;" parent="1" vertex="1">
          <mxGeometry x="135" y="150" width="130" height="70" as="geometry" />
        </mxCell>
        <mxCell id="Q3gbNBMTAT74gwtriScG-4" value="CLIENTE&lt;div&gt;entrega documentos&lt;/div&gt;" style="rounded=0;whiteSpace=wrap;html=1;fillColor=#6a00ff;fontColor=#ffffff;strokeColor=#3700CC;" parent="1" vertex="1">
          <mxGeometry x="140" y="250" width="120" height="60" as="geometry" />
        </mxCell>
        <mxCell id="Q3gbNBMTAT74gwtriScG-5" value="¿Los documentos son validos/" style="rhombus;whiteSpace=wrap;html=1;fillColor=#fa6800;fontColor=#000000;strokeColor=#C73500;" parent="1" vertex="1">
          <mxGeometry x="120" y="360" width="160" height="120" as="geometry" />
        </mxCell>
        <mxCell id="Q3gbNBMTAT74gwtriScG-6" value="" style="endArrow=none;html=1;rounded=0;entryX=0;entryY=0.5;entryDx=0;entryDy=0;" parent="1" target="Q3gbNBMTAT74gwtriScG-5" edge="1">
          <mxGeometry width="50" height="50" relative="1" as="geometry">
            <mxPoint x="50" y="420" as="sourcePoint" />
            <mxPoint x="250" y="400" as="targetPoint" />
          </mxGeometry>
        </mxCell>
        <mxCell id="Q3gbNBMTAT74gwtriScG-7" value="" style="endArrow=none;html=1;rounded=0;exitX=1;exitY=0.5;exitDx=0;exitDy=0;" parent="1" source="Q3gbNBMTAT74gwtriScG-5" edge="1">
          <mxGeometry width="50" height="50" relative="1" as="geometry">
            <mxPoint x="200" y="450" as="sourcePoint" />
            <mxPoint x="340" y="420" as="targetPoint" />
          </mxGeometry>
        </mxCell>
        <mxCell id="Q3gbNBMTAT74gwtriScG-9" value="NO" style="text;html=1;align=center;verticalAlign=middle;whiteSpace=wrap;rounded=0;" parent="1" vertex="1">
          <mxGeometry x="50" y="390" width="60" height="30" as="geometry" />
        </mxCell>
        <mxCell id="Q3gbNBMTAT74gwtriScG-10" value="SI" style="text;html=1;align=center;verticalAlign=middle;whiteSpace=wrap;rounded=0;" parent="1" vertex="1">
          <mxGeometry x="280" y="390" width="60" height="30" as="geometry" />
        </mxCell>
        <mxCell id="Q3gbNBMTAT74gwtriScG-24" style="edgeStyle=orthogonalEdgeStyle;rounded=0;orthogonalLoop=1;jettySize=auto;html=1;" parent="1" source="Q3gbNBMTAT74gwtriScG-11" edge="1">
          <mxGeometry relative="1" as="geometry">
            <mxPoint x="120" y="590" as="targetPoint" />
            <Array as="points">
              <mxPoint x="-10" y="560" />
              <mxPoint x="-10" y="560" />
            </Array>
          </mxGeometry>
        </mxCell>
        <mxCell id="Q3gbNBMTAT74gwtriScG-11" value="Se le solicita al cliente corregir la documentacion&amp;nbsp;" style="rounded=0;whiteSpace=wrap;html=1;fillColor=#a20025;fontColor=#ffffff;strokeColor=#6F0000;" parent="1" vertex="1">
          <mxGeometry x="-70" y="390" width="120" height="60" as="geometry" />
        </mxCell>
        <mxCell id="Q3gbNBMTAT74gwtriScG-25" style="edgeStyle=orthogonalEdgeStyle;rounded=0;orthogonalLoop=1;jettySize=auto;html=1;exitX=0.5;exitY=1;exitDx=0;exitDy=0;" parent="1" source="Q3gbNBMTAT74gwtriScG-12" edge="1">
          <mxGeometry relative="1" as="geometry">
            <mxPoint x="270" y="590" as="targetPoint" />
            <mxPoint x="380" y="450" as="sourcePoint" />
            <Array as="points">
              <mxPoint x="400" y="590" />
            </Array>
          </mxGeometry>
        </mxCell>
        <mxCell id="Q3gbNBMTAT74gwtriScG-12" value="el representante crea la cuenta en el sistema&amp;nbsp;" style="rounded=0;whiteSpace=wrap;html=1;fillColor=#60a917;fontColor=#ffffff;strokeColor=#2D7600;" parent="1" vertex="1">
          <mxGeometry x="340" y="390" width="120" height="60" as="geometry" />
        </mxCell>
        <mxCell id="Q3gbNBMTAT74gwtriScG-28" value="" style="edgeStyle=orthogonalEdgeStyle;rounded=0;orthogonalLoop=1;jettySize=auto;html=1;" parent="1" source="Q3gbNBMTAT74gwtriScG-19" target="Q3gbNBMTAT74gwtriScG-27" edge="1">
          <mxGeometry relative="1" as="geometry" />
        </mxCell>
        <mxCell id="Q3gbNBMTAT74gwtriScG-19" value="cliente hace el deposito inicial" style="rounded=0;whiteSpace=wrap;html=1;fillColor=#6a00ff;fontColor=#ffffff;strokeColor=#3700CC;" parent="1" vertex="1">
          <mxGeometry x="135" y="560" width="120" height="60" as="geometry" />
        </mxCell>
        <mxCell id="Q3gbNBMTAT74gwtriScG-30" value="" style="edgeStyle=orthogonalEdgeStyle;rounded=0;orthogonalLoop=1;jettySize=auto;html=1;" parent="1" source="Q3gbNBMTAT74gwtriScG-27" target="Q3gbNBMTAT74gwtriScG-29" edge="1">
          <mxGeometry relative="1" as="geometry" />
        </mxCell>
        <mxCell id="Q3gbNBMTAT74gwtriScG-27" value="la cuenta se activa" style="rounded=0;whiteSpace=wrap;html=1;fillColor=#1ba1e2;fontColor=#ffffff;strokeColor=#006EAF;" parent="1" vertex="1">
          <mxGeometry x="135" y="700" width="120" height="60" as="geometry" />
        </mxCell>
        <mxCell id="Q3gbNBMTAT74gwtriScG-29" value="FIN&lt;div&gt;se entrega al clienta la cuenta y la tarjeta&lt;/div&gt;" style="ellipse;whiteSpace=wrap;html=1;rounded=0;fillColor=#60a917;fontColor=#ffffff;strokeColor=#2D7600;" parent="1" vertex="1">
          <mxGeometry x="127.5" y="830" width="135" height="80" as="geometry" />
        </mxCell>
        <mxCell id="Q3gbNBMTAT74gwtriScG-31" value="" style="shape=actor;whiteSpace=wrap;html=1;fillColor=#0050ef;fontColor=#ffffff;strokeColor=#001DBC;" parent="1" vertex="1">
          <mxGeometry x="280" y="840" width="40" height="60" as="geometry" />
        </mxCell>
        <mxCell id="Q3gbNBMTAT74gwtriScG-32" value="" style="verticalLabelPosition=bottom;verticalAlign=top;html=1;shape=mxgraph.basic.frame;dx=10;whiteSpace=wrap;" parent="1" vertex="1">
          <mxGeometry x="290" y="145" width="160" height="80" as="geometry" />
        </mxCell>
        <mxCell id="Q3gbNBMTAT74gwtriScG-34" value="" style="verticalLabelPosition=bottom;verticalAlign=top;html=1;shape=mxgraph.basic.smiley;fillColor=#ffcd28;gradientColor=#ffa500;strokeColor=#d79b00;" parent="1" vertex="1">
          <mxGeometry x="310" y="165" width="40" height="40" as="geometry" />
        </mxCell>
        <mxCell id="Q3gbNBMTAT74gwtriScG-35" value="" style="shape=image;html=1;verticalLabelPosition=bottom;verticalAlign=top;imageAspect=0;image=img/clipart/Gear_128x128.png" parent="1" vertex="1">
          <mxGeometry x="430" y="155" width="10" height="10" as="geometry" />
        </mxCell>
        <mxCell id="Q3gbNBMTAT74gwtriScG-36" value="cynthia jasmine morales torres" style="text;html=1;align=center;verticalAlign=middle;whiteSpace=wrap;rounded=0;fontSize=5;" parent="1" vertex="1">
          <mxGeometry x="360" y="165" width="70" height="5" as="geometry" />
        </mxCell>
        <mxCell id="Q3gbNBMTAT74gwtriScG-38" value="comprobante de domicilio" style="whiteSpace=wrap;html=1;shape=mxgraph.basic.document" parent="1" vertex="1">
          <mxGeometry x="360" y="180" width="100" height="100" as="geometry" />
        </mxCell>
      </root>
    </mxGraphModel>
  </diagram>
  <diagram id="Ilz70vu1MMTBiUAA830u" name="Página-2">
    <mxGraphModel dx="786" dy="516" grid="1" gridSize="10" guides="1" tooltips="1" connect="1" arrows="1" fold="1" page="1" pageScale="1" pageWidth="827" pageHeight="1169" math="0" shadow="0">
      <root>
        <mxCell id="0" />
        <mxCell id="1" parent="0" />
      </root>
    </mxGraphModel>
  </diagram>
</mxfile>
